# xmcd
#
# Track frame offsets:
#	150
#	19016
#	41479
#	54521
#	68342
#	85289
#	100099
#	103447
#	126170
#	146767
#	167667
#
# Disc length: 2603 seconds
# Revision: 2
# Processed by: cddbd v1.5.2PL0 Copyright (c) Steve Scherf et al.
# Submitted via: dBpowerAMP V12.0
#
DISCID=900a290b
DTITLE=Kathy Mattea - Coal
DYEAR=2008
DGENRE=Country*
TTITLE0=The L&N Don't Stop Here Anymore
TTITLE1=Blue Diamond Mines
TTITLE2=Red-Winged Blackbird
TTITLE3=Lawrence Jones
TTITLE4=Green Rolling Hills
TTITLE5=Coal Tattoo
TTITLE6=Sally In The Garden
TTITLE7=You'll Never Leave Harlan Alive
TTITLE8=Dark As A Dungeon
TTITLE9=Coming Of The Roads
TTITLE10=Black Lung | Coal
EXTD=
EXTT0=
EXTT1=
EXTT2=
EXTT3=
EXTT4=
EXTT5=
EXTT6=
EXTT7=
EXTT8=
EXTT9=
EXTT10=
PLAYORDER=
